<svg width="930" height="715" viewBox="0 0 930 715" fill="none" xmlns="http://www.w3.org/2000/svg">
<path opacity="0.6" fill-rule="evenodd" clip-rule="evenodd" d="M781.354 270.826C907.029 308.819 989 370.085 989 434.732C989 499.181 907.432 560.447 782.562 598.439C811.765 724.551 799.077 825.003 742.483 857.228C729.19 864.786 713.884 868.367 696.966 868.367C641.58 868.367 569.075 829.777 495.764 762.544C422.454 830.175 349.949 869.162 294.563 869.162C277.645 869.162 262.338 865.582 249.247 858.023C192.452 825.799 179.562 725.148 208.564 598.638C82.8885 560.645 0.917542 499.38 0.917542 434.732C0.917542 370.284 82.4857 309.217 207.758 271.025C178.555 144.913 191.243 44.4613 247.837 12.2371C261.13 4.67835 276.437 1.09789 293.354 1.09789V0.898976C348.74 0.898976 421.245 39.4885 494.556 106.722C567.867 39.0906 640.372 0.103313 695.757 0.103313V0.302399C712.395 0.331069 727.632 3.91307 740.67 11.4415C797.466 43.6657 810.356 144.317 781.354 270.826ZM695.556 44.4616C653.668 44.5672 592.131 77.5777 526.579 137.752C554.977 166.993 583.173 200.411 610.363 237.21C655.678 241.984 698.778 249.344 738.253 258.892C742.684 238.801 746.31 219.109 748.525 200.411C757.789 124.425 745.907 65.3474 718.516 49.832C712.272 46.4505 704.82 44.6602 695.556 44.6602V44.4616ZM462.533 137.951C396.876 78.0779 335.045 45.257 293.354 45.257V45.4559C284.09 45.4559 276.235 47.0472 270.193 50.6277C243.004 66.342 231.322 125.42 240.788 201.405C243.205 219.904 246.629 239.199 251.261 259.09C290.736 249.344 333.836 241.984 379.354 237.21C406.14 200.411 434.336 167.192 462.533 137.951ZM699.584 380.627C710.057 354.172 719.321 327.716 726.773 302.056C700.39 295.691 672.797 290.519 644.198 286.342C654.067 301.459 663.936 316.975 673.2 332.888C682.666 348.801 691.326 364.714 699.584 380.627ZM585.993 589.886C602.709 566.215 618.821 540.754 634.531 513.9C649.636 487.843 663.533 461.188 676.221 434.533C663.533 407.879 649.636 381.423 634.33 355.365C618.62 328.711 602.306 303.448 585.59 279.778C555.782 277.391 525.371 275.998 494.959 275.998C464.346 275.998 433.934 277.391 403.925 279.977C387.208 303.647 371.096 329.109 355.387 355.962C340.281 382.02 326.183 408.674 313.696 435.329C326.385 461.984 340.281 488.439 355.588 514.497C371.297 541.152 387.611 566.414 404.327 590.085C434.135 592.472 464.547 593.864 494.959 593.864C525.572 593.864 555.984 592.472 585.993 589.886ZM727.378 567.21C719.724 541.351 710.46 514.696 699.584 488.041C691.326 503.955 682.666 520.067 673.402 535.98C664.137 552.092 654.268 567.806 644.4 583.123C673.2 578.946 700.994 573.575 727.378 567.21ZM439.372 636.631C457.901 659.904 476.631 681.188 495.362 700.284C513.891 681.188 532.621 659.904 550.747 636.631C532.42 637.625 513.689 638.023 494.757 638.023C476.027 638.023 457.498 637.427 439.372 636.631ZM262.943 567.409C289.326 573.774 316.919 578.946 345.518 583.123C335.649 568.005 325.982 552.49 316.516 536.577C307.05 520.664 298.39 504.75 290.132 488.837C279.659 515.293 270.395 541.749 262.943 567.409ZM550.344 232.834C531.815 209.561 513.085 188.277 494.355 169.181C475.826 188.277 457.095 209.561 438.969 232.834C457.296 231.839 476.027 231.441 494.959 231.441C513.689 231.441 532.218 232.038 550.344 232.834ZM316.314 333.485C325.579 317.373 335.448 301.658 345.316 286.342C316.516 290.519 288.722 295.89 262.338 302.056C269.992 327.915 279.256 354.57 290.132 381.224C298.39 365.311 307.05 349.398 316.314 333.485ZM45.629 434.732C45.629 465.962 91.7503 505.347 163.047 535.383C180.569 542.743 199.501 549.506 219.44 555.673C230.718 516.884 245.622 476.504 264.151 435.13C245.421 393.557 230.315 352.978 218.835 313.991C199.299 320.157 180.368 326.722 163.047 334.081C91.7503 363.919 45.629 403.503 45.629 434.732ZM241.393 669.054C232.128 745.039 244.011 804.117 271.402 819.633C277.444 823.014 285.097 824.804 294.16 825.003C336.052 825.003 397.681 791.983 463.338 731.712C434.941 702.472 406.744 669.054 379.555 632.255C334.239 627.481 291.139 620.121 251.664 610.573C247.233 630.663 243.608 650.356 241.393 669.054ZM719.724 818.837C746.914 803.123 758.595 744.045 749.129 668.059C746.914 649.56 743.288 630.266 738.656 610.175C699.181 619.922 656.081 627.282 610.564 632.056C583.777 668.855 555.581 702.074 527.385 731.314C593.042 791.188 654.873 824.009 696.563 824.009C705.827 824.009 713.682 822.417 719.724 818.837ZM770.881 555.474C790.417 549.307 809.349 542.743 826.669 535.383C897.966 505.546 944.087 465.962 944.288 434.732C944.288 403.503 898.167 364.118 826.871 334.081C809.147 326.722 790.215 319.958 770.276 313.792C758.998 352.58 744.094 392.96 725.565 434.334C744.295 475.908 759.401 516.486 770.881 555.474ZM586.799 434.734C586.799 484.939 545.59 525.638 494.757 525.638C443.925 525.638 402.716 484.939 402.716 434.734C402.716 384.529 443.925 343.83 494.757 343.83C545.59 343.83 586.799 384.529 586.799 434.734Z" fill="#1F2729"/>
</svg>
